<mxfile host="65bd71144e">
    <diagram id="cKG6rx0YlNjc_p0HYj63" name="Page-1">
        <mxGraphModel dx="693" dy="783" grid="1" gridSize="10" guides="1" tooltips="1" connect="1" arrows="1" fold="1" page="1" pageScale="1" pageWidth="2000" pageHeight="1100" math="0" shadow="0">
            <root>
                <mxCell id="0"/>
                <mxCell id="1" parent="0"/>
                <mxCell id="2" value="" style="rounded=1;whiteSpace=wrap;html=1;arcSize=6;" parent="1" vertex="1">
                    <mxGeometry x="360" y="280" width="320" height="360" as="geometry"/>
                </mxCell>
                <mxCell id="3" value="INPUT" style="rounded=1;whiteSpace=wrap;html=1;" parent="1" vertex="1">
                    <mxGeometry x="460" y="260" width="120" height="40" as="geometry"/>
                </mxCell>
                <mxCell id="4" value="" style="rounded=1;whiteSpace=wrap;html=1;arcSize=6;" parent="1" vertex="1">
                    <mxGeometry x="720" y="280" width="320" height="360" as="geometry"/>
                </mxCell>
                <mxCell id="5" value="PROCESS" style="rounded=1;whiteSpace=wrap;html=1;" parent="1" vertex="1">
                    <mxGeometry x="820" y="260" width="120" height="40" as="geometry"/>
                </mxCell>
                <mxCell id="6" value="" style="html=1;shadow=0;dashed=0;align=center;verticalAlign=middle;shape=mxgraph.arrows2.arrow;dy=0.6;dx=40;notch=15;" parent="1" vertex="1">
                    <mxGeometry x="660" y="425" width="80" height="70" as="geometry"/>
                </mxCell>
                <mxCell id="10" value="Establishment Owner" style="image;html=1;image=img/lib/clip_art/people/Suit_Man_Green_128x128.png;imageBackground=none;imageBorder=none;imageAspect=1;flipH=1;" parent="1" vertex="1">
                    <mxGeometry x="570" y="520" width="80" height="80" as="geometry"/>
                </mxCell>
                <mxCell id="11" value="Researchers" style="image;html=1;image=img/lib/clip_art/people/Worker_Man_128x128.png" parent="1" vertex="1">
                    <mxGeometry x="370" y="310" width="80" height="80" as="geometry"/>
                </mxCell>
                <mxCell id="14" value="" style="edgeStyle=segmentEdgeStyle;endArrow=classic;html=1;curved=0;rounded=0;endSize=8;startSize=8;entryX=0;entryY=0.5;entryDx=0;entryDy=0;" parent="1" target="10" edge="1">
                    <mxGeometry width="50" height="50" relative="1" as="geometry">
                        <mxPoint x="410" y="420" as="sourcePoint"/>
                        <mxPoint x="960" y="510" as="targetPoint"/>
                        <Array as="points">
                            <mxPoint x="410" y="560"/>
                        </Array>
                    </mxGeometry>
                </mxCell>
                <mxCell id="15" value="&lt;font style=&quot;font-size: 14px;&quot;&gt;Conduct a Survey&lt;/font&gt;" style="text;html=1;strokeColor=none;fillColor=none;align=center;verticalAlign=middle;whiteSpace=wrap;rounded=0;sketch=0;" parent="1" vertex="1">
                    <mxGeometry x="410" y="530" width="120" height="30" as="geometry"/>
                </mxCell>
                <mxCell id="16" value="" style="image;html=1;image=img/lib/clip_art/people/Suit_Man_128x128.png;sketch=0;fontSize=14;" parent="1" vertex="1">
                    <mxGeometry x="730" y="300" width="80" height="80" as="geometry"/>
                </mxCell>
                <mxCell id="21" value="" style="image;html=1;image=img/lib/clip_art/people/Suit_Man_Black_128x128.png;sketch=0;fontSize=14;" parent="1" vertex="1">
                    <mxGeometry x="760" y="310" width="80" height="80" as="geometry"/>
                </mxCell>
                <mxCell id="18" value="Customers" style="image;html=1;image=img/lib/clip_art/people/Worker_Woman_128x128.png;sketch=0;fontSize=14;" parent="1" vertex="1">
                    <mxGeometry x="740" y="330" width="80" height="80" as="geometry"/>
                </mxCell>
                <mxCell id="19" value="" style="edgeStyle=segmentEdgeStyle;endArrow=classic;html=1;curved=0;rounded=0;endSize=8;startSize=8;fontSize=14;entryX=1;entryY=0.5;entryDx=0;entryDy=0;" parent="1" target="11" edge="1">
                    <mxGeometry width="50" height="50" relative="1" as="geometry">
                        <mxPoint x="630" y="510" as="sourcePoint"/>
                        <mxPoint x="840" y="420" as="targetPoint"/>
                        <Array as="points">
                            <mxPoint x="630" y="350"/>
                        </Array>
                    </mxGeometry>
                </mxCell>
                <mxCell id="20" value="&lt;font style=&quot;font-size: 14px;&quot;&gt;Gather the survey data and apply it to the system&lt;/font&gt;" style="text;html=1;strokeColor=none;fillColor=none;align=center;verticalAlign=middle;whiteSpace=wrap;rounded=0;sketch=0;" parent="1" vertex="1">
                    <mxGeometry x="510" y="350" width="120" height="70" as="geometry"/>
                </mxCell>
                <mxCell id="22" value="&lt;font style=&quot;font-size: 12px;&quot;&gt;FrEzMenu Kiosk&lt;/font&gt;" style="image;html=1;image=img/lib/clip_art/computers/iPad_128x128.png;sketch=0;fontSize=14;" parent="1" vertex="1">
                    <mxGeometry x="940" y="320" width="80" height="80" as="geometry"/>
                </mxCell>
                <mxCell id="23" value="" style="endArrow=classic;html=1;fontSize=14;entryX=1;entryY=0.25;entryDx=0;entryDy=0;exitX=0.005;exitY=0.129;exitDx=0;exitDy=0;exitPerimeter=0;" parent="1" source="22" target="21" edge="1">
                    <mxGeometry width="50" height="50" relative="1" as="geometry">
                        <mxPoint x="850" y="490" as="sourcePoint"/>
                        <mxPoint x="900" y="440" as="targetPoint"/>
                    </mxGeometry>
                </mxCell>
                <mxCell id="24" value="&lt;font style=&quot;font-size: 10px;&quot;&gt;Display&amp;nbsp;Menu&lt;/font&gt;" style="text;html=1;strokeColor=none;fillColor=none;align=center;verticalAlign=middle;whiteSpace=wrap;rounded=0;sketch=0;fontSize=10;" parent="1" vertex="1">
                    <mxGeometry x="854" y="317" width="86" height="13" as="geometry"/>
                </mxCell>
                <mxCell id="25" value="" style="endArrow=classic;html=1;fontSize=10;exitX=1;exitY=0.75;exitDx=0;exitDy=0;" parent="1" source="21" edge="1">
                    <mxGeometry width="50" height="50" relative="1" as="geometry">
                        <mxPoint x="820" y="480" as="sourcePoint"/>
                        <mxPoint x="940" y="370" as="targetPoint"/>
                    </mxGeometry>
                </mxCell>
                <mxCell id="26" value="&lt;font style=&quot;font-size: 10px;&quot;&gt;Order Input&lt;/font&gt;" style="text;html=1;strokeColor=none;fillColor=none;align=center;verticalAlign=middle;whiteSpace=wrap;rounded=0;sketch=0;fontSize=10;" parent="1" vertex="1">
                    <mxGeometry x="840" y="353.5" width="86" height="13" as="geometry"/>
                </mxCell>
                <mxCell id="27" value="&lt;font style=&quot;font-size: 12px;&quot;&gt;FreEzMenu&lt;/font&gt;" style="image;html=1;image=img/lib/clip_art/computers/Monitor_128x128.png;sketch=0;fontSize=10;" parent="1" vertex="1">
                    <mxGeometry x="930" y="520" width="80" height="80" as="geometry"/>
                </mxCell>
                <mxCell id="31" value="&lt;font style=&quot;font-size: 10px;&quot;&gt;Queue Orders&lt;/font&gt;" style="text;html=1;strokeColor=none;fillColor=none;align=center;verticalAlign=middle;whiteSpace=wrap;rounded=0;sketch=0;fontSize=10;" parent="1" vertex="1">
                    <mxGeometry x="930" y="453.5" width="70" height="13" as="geometry"/>
                </mxCell>
                <mxCell id="35" value="" style="edgeStyle=segmentEdgeStyle;endArrow=classic;html=1;curved=0;rounded=0;endSize=8;startSize=8;fontSize=12;entryX=0.625;entryY=0;entryDx=0;entryDy=0;entryPerimeter=0;" parent="1" target="27" edge="1">
                    <mxGeometry width="50" height="50" relative="1" as="geometry">
                        <mxPoint x="980" y="430" as="sourcePoint"/>
                        <mxPoint x="980" y="450" as="targetPoint"/>
                        <Array as="points">
                            <mxPoint x="980" y="450"/>
                            <mxPoint x="1000" y="450"/>
                            <mxPoint x="1000" y="470"/>
                            <mxPoint x="980" y="470"/>
                        </Array>
                    </mxGeometry>
                </mxCell>
                <mxCell id="36" value="Establishment Owner" style="image;html=1;image=img/lib/clip_art/people/Suit_Man_Green_128x128.png;imageBackground=none;imageBorder=none;imageAspect=1;flipH=0;" parent="1" vertex="1">
                    <mxGeometry x="750" y="520" width="80" height="80" as="geometry"/>
                </mxCell>
                <mxCell id="37" value="" style="endArrow=classic;html=1;fontSize=10;exitX=1;exitY=0.75;exitDx=0;exitDy=0;" parent="1" edge="1">
                    <mxGeometry width="50" height="50" relative="1" as="geometry">
                        <mxPoint x="833" y="580" as="sourcePoint"/>
                        <mxPoint x="933" y="580" as="targetPoint"/>
                    </mxGeometry>
                </mxCell>
                <mxCell id="38" value="&lt;font style=&quot;font-size: 10px;&quot;&gt;Edit Menu Design&lt;/font&gt;" style="text;html=1;strokeColor=none;fillColor=none;align=center;verticalAlign=middle;whiteSpace=wrap;rounded=0;sketch=0;fontSize=10;" parent="1" vertex="1">
                    <mxGeometry x="835" y="582" width="86" height="13" as="geometry"/>
                </mxCell>
                <mxCell id="41" value="" style="endArrow=classic;html=1;fontSize=10;exitX=1;exitY=0.75;exitDx=0;exitDy=0;" parent="1" edge="1">
                    <mxGeometry width="50" height="50" relative="1" as="geometry">
                        <mxPoint x="835" y="557" as="sourcePoint"/>
                        <mxPoint x="935" y="557" as="targetPoint"/>
                    </mxGeometry>
                </mxCell>
                <mxCell id="42" value="&lt;font style=&quot;font-size: 10px;&quot;&gt;Login Credintials&lt;/font&gt;" style="text;html=1;strokeColor=none;fillColor=none;align=center;verticalAlign=middle;whiteSpace=wrap;rounded=0;sketch=0;fontSize=10;" parent="1" vertex="1">
                    <mxGeometry x="837" y="543" width="86" height="13" as="geometry"/>
                </mxCell>
                <mxCell id="43" value="" style="edgeStyle=segmentEdgeStyle;endArrow=classic;html=1;curved=0;rounded=0;endSize=8;startSize=8;fontSize=12;exitX=0.25;exitY=0;exitDx=0;exitDy=0;" parent="1" source="27" edge="1">
                    <mxGeometry width="50" height="50" relative="1" as="geometry">
                        <mxPoint x="870" y="490" as="sourcePoint"/>
                        <mxPoint x="780" y="440" as="targetPoint"/>
                        <Array as="points">
                            <mxPoint x="950" y="500"/>
                            <mxPoint x="780" y="500"/>
                        </Array>
                    </mxGeometry>
                </mxCell>
                <mxCell id="44" value="&lt;font style=&quot;font-size: 10px;&quot;&gt;Food Ordered&lt;/font&gt;" style="text;html=1;strokeColor=none;fillColor=none;align=center;verticalAlign=middle;whiteSpace=wrap;rounded=0;sketch=0;fontSize=10;" parent="1" vertex="1">
                    <mxGeometry x="780" y="482" width="86" height="13" as="geometry"/>
                </mxCell>
                <mxCell id="45" value="" style="rounded=1;whiteSpace=wrap;html=1;arcSize=6;" parent="1" vertex="1">
                    <mxGeometry x="1080" y="280" width="320" height="360" as="geometry"/>
                </mxCell>
                <mxCell id="46" value="OUTPUT" style="rounded=1;whiteSpace=wrap;html=1;" parent="1" vertex="1">
                    <mxGeometry x="1180" y="260" width="120" height="40" as="geometry"/>
                </mxCell>
                <mxCell id="47" value="" style="html=1;shadow=0;dashed=0;align=center;verticalAlign=middle;shape=mxgraph.arrows2.arrow;dy=0.6;dx=40;notch=15;" parent="1" vertex="1">
                    <mxGeometry x="1020" y="425" width="80" height="70" as="geometry"/>
                </mxCell>
                <mxCell id="48" value="&lt;font style=&quot;font-size: 14px;&quot;&gt;FreEzMenu&lt;/font&gt;" style="image;html=1;image=img/lib/clip_art/computers/Monitor_Tower_128x128.png;sketch=0;fontSize=12;" parent="1" vertex="1">
                    <mxGeometry x="1145" y="363" width="190" height="180" as="geometry"/>
                </mxCell>
            </root>
        </mxGraphModel>
    </diagram>
</mxfile>